<?xml version="1.0" encoding="UTF-8"?>
<!DOCTYPE svg PUBLIC "-//W3C//DTD SVG 1.1//EN" "http://www.w3.org/Graphics/SVG/1.1/DTD/svg11.dtd">
<!-- Creator: CorelDRAW X7 -->
<svg xmlns="http://www.w3.org/2000/svg" xml:space="preserve" width="2.1166mm" height="2.1166mm" version="1.1" style="shape-rendering:geometricPrecision; text-rendering:geometricPrecision; image-rendering:optimizeQuality; fill-rule:evenodd; clip-rule:evenodd"
viewBox="0 0 212 212"
 xmlns:xlink="http://www.w3.org/1999/xlink">
 <defs>
  <style type="text/css">
   <![CDATA[
    .fil0 {fill:#FF574D}
   ]]>
  </style>
 </defs>
 <g id="Слой_x0020_1">
  <metadata id="CorelCorpID_0Corel-Layer"/>
  <path class="fil0" d="M4 4c3,-2 7,-4 11,-4 4,0 8,2 11,4l80 80 80 -80c3,-2 7,-4 11,-4 8,0 15,7 15,15 0,4 -2,8 -5,11l-80 80 80 80c3,3 5,7 5,11 0,8 -7,15 -15,15 -4,0 -8,-2 -11,-5l-80 -80 -80 80c-3,3 -7,5 -11,5 -8,0 -15,-7 -15,-15 0,-4 2,-8 4,-11l80 -80 -80 -80c-2,-3 -4,-7 -4,-11 0,-4 2,-8 4,-11l0 0z"/>
 </g>
</svg>
